<svg width="25" height="25" viewBox="0 0 25 25" fill="none" xmlns="http://www.w3.org/2000/svg">
<g clip-path="url(#clip0_83_5698)">
<g clip-path="url(#clip1_83_5698)">
<path d="M21.1427 14.7319C21.1412 16.1637 20.5716 17.5366 19.5592 18.549C18.5467 19.5616 17.1739 20.1311 15.742 20.1326H8.316C8.13696 20.1326 7.96525 20.0615 7.83864 19.9348C7.71204 19.8083 7.64091 19.6366 7.64091 19.4575C7.64091 19.2784 7.71204 19.1068 7.83864 18.9802C7.96525 18.8536 8.13696 18.7824 8.316 18.7824H15.742C16.8163 18.7824 17.8465 18.3557 18.6062 17.5961C19.3657 16.8365 19.7925 15.8062 19.7925 14.7319C19.7925 13.6576 19.3657 12.6273 18.6062 11.8678C17.8465 11.1081 16.8163 10.6814 15.742 10.6814H5.89497L8.79363 13.5792C8.92031 13.7059 8.99147 13.8776 8.99147 14.0568C8.99147 14.236 8.92031 14.4077 8.79363 14.5344C8.66696 14.6612 8.49516 14.7323 8.316 14.7323C8.13686 14.7323 7.96505 14.6612 7.83839 14.5344L3.78784 10.4839C3.72508 10.4212 3.67528 10.3467 3.6413 10.2648C3.60733 10.1828 3.58984 10.095 3.58984 10.0063C3.58984 9.91756 3.60733 9.82971 3.6413 9.74776C3.67528 9.6658 3.72508 9.59134 3.78784 9.52865L7.83839 5.47811C7.96505 5.35143 8.13686 5.28027 8.316 5.28027C8.49516 5.28027 8.66696 5.35143 8.79363 5.47811C8.92031 5.60478 8.99147 5.77659 8.99147 5.95573C8.99147 6.13488 8.92031 6.30669 8.79363 6.43336L5.89497 9.33118H15.742C17.1739 9.33275 18.5467 9.90225 19.5592 10.9147C20.5716 11.9272 21.1412 13.3001 21.1427 14.7319Z" fill="white"/>
</g>
</g>
<defs>
<clipPath id="clip0_83_5698">
<rect width="23.7632" height="23.7632" fill="white" transform="translate(0.480469 0.824219)"/>
</clipPath>
<clipPath id="clip1_83_5698">
<rect width="23.7632" height="23.7632" fill="white" transform="translate(0.480469 0.824219)"/>
</clipPath>
</defs>
</svg>
