<svg width="24" height="25" viewBox="0 0 24 25" fill="none" xmlns="http://www.w3.org/2000/svg">
<g clip-path="url(#clip0_83_5692)">
<g clip-path="url(#clip1_83_5692)">
<path d="M20.1507 10.5808C19.8326 10.2483 19.5035 9.90572 19.3794 9.60446C19.2647 9.32852 19.2578 8.87114 19.2511 8.42811C19.2385 7.6045 19.225 6.67119 18.5761 6.02226C17.9271 5.37333 16.9939 5.35983 16.1703 5.34717C15.7272 5.34042 15.2698 5.33367 14.9939 5.21891C14.6935 5.09486 14.35 4.76575 14.0175 4.44762C13.4352 3.88814 12.7736 3.25439 11.8927 3.25439C11.0117 3.25439 10.3509 3.88814 9.76782 4.44762C9.43534 4.76575 9.09273 5.09486 8.79148 5.21891C8.51722 5.33367 8.05816 5.34042 7.61512 5.34717C6.79151 5.35983 5.8582 5.37333 5.20928 6.02226C4.56035 6.67119 4.55106 7.6045 4.53419 8.42811C4.52743 8.87114 4.52068 9.32852 4.40592 9.60446C4.28187 9.90487 3.95277 10.2483 3.63463 10.5808C3.07515 11.1631 2.44141 11.8247 2.44141 12.7057C2.44141 13.5866 3.07515 14.2473 3.63463 14.8305C3.95277 15.163 4.28187 15.5056 4.40592 15.8069C4.52068 16.0828 4.52743 16.5402 4.53419 16.9832C4.54684 17.8069 4.56035 18.7401 5.20928 19.389C5.8582 20.038 6.79151 20.0515 7.61512 20.0641C8.05816 20.0708 8.51553 20.0776 8.79148 20.1923C9.09189 20.3165 9.43534 20.6456 9.76782 20.9637C10.3501 21.5232 11.0117 22.1569 11.8927 22.1569C12.7736 22.1569 13.4344 21.5232 14.0175 20.9637C14.35 20.6456 14.6926 20.3165 14.9939 20.1923C15.2698 20.0776 15.7272 20.0708 16.1703 20.0641C16.9939 20.0515 17.9271 20.038 18.5761 19.389C19.225 18.7401 19.2385 17.8069 19.2511 16.9832C19.2578 16.5402 19.2647 16.0828 19.3794 15.8069C19.5035 15.5065 19.8326 15.163 20.1507 14.8305C20.7102 14.2482 21.3439 13.5866 21.3439 12.7057C21.3439 11.8247 20.7102 11.1639 20.1507 10.5808ZM19.1761 13.8963C18.7718 14.3183 18.3532 14.7546 18.1314 15.2904C17.9187 15.8051 17.9094 16.3934 17.901 16.9629C17.8925 17.5537 17.8833 18.1722 17.6208 18.4338C17.3584 18.6954 16.744 18.7055 16.1499 18.714C15.5804 18.7224 14.9921 18.7317 14.4775 18.9444C13.9416 19.1662 13.5053 19.5848 13.0833 19.9891C12.6614 20.3933 12.2302 20.8067 11.8927 20.8067C11.5551 20.8067 11.1206 20.3915 10.702 19.9891C10.2834 19.5865 9.84377 19.1662 9.30791 18.9444C8.79316 18.7317 8.20499 18.7224 7.63538 18.714C7.04468 18.7055 6.42612 18.6962 6.16452 18.4338C5.90293 18.1714 5.8928 17.557 5.88437 16.9629C5.87593 16.3934 5.86664 15.8051 5.65399 15.2904C5.43205 14.7546 5.0135 14.3183 4.60929 13.8963C4.20508 13.4744 3.79159 13.0432 3.79159 12.7057C3.79159 12.3681 4.20676 11.9336 4.60929 11.515C5.01181 11.0964 5.43205 10.6568 5.65399 10.1209C5.86664 9.60615 5.87593 9.01798 5.88437 8.44836C5.8928 7.85767 5.90209 7.23911 6.16452 6.97751C6.42696 6.71592 7.0413 6.70579 7.63538 6.69735C8.20499 6.68892 8.79316 6.67963 9.30791 6.46698C9.84377 6.24504 10.28 5.82649 10.702 5.42228C11.1239 5.01806 11.5551 4.60457 11.8927 4.60457C12.2302 4.60457 12.6648 5.01975 13.0833 5.42228C13.5019 5.8248 13.9416 6.24504 14.4775 6.46698C14.9921 6.67963 15.5804 6.68892 16.1499 6.69735C16.7407 6.70579 17.3592 6.71508 17.6208 6.97751C17.8824 7.23995 17.8925 7.85429 17.901 8.44836C17.9094 9.01798 17.9187 9.60615 18.1314 10.1209C18.3532 10.6568 18.7718 11.093 19.1761 11.515C19.5803 11.9369 19.9937 12.3681 19.9937 12.7057C19.9937 13.0432 19.5785 13.4777 19.1761 13.8963ZM15.7458 10.2028C15.8085 10.2655 15.8583 10.3399 15.8923 10.4219C15.9262 10.5038 15.9437 10.5917 15.9437 10.6804C15.9437 10.7691 15.9262 10.8569 15.8923 10.9389C15.8583 11.0209 15.8085 11.0953 15.7458 11.158L11.0201 15.8837C10.9574 15.9464 10.8829 15.9962 10.801 16.0302C10.719 16.0641 10.6312 16.0816 10.5425 16.0816C10.4538 16.0816 10.3659 16.0641 10.284 16.0302C10.202 15.9962 10.1276 15.9464 10.0649 15.8837L8.03959 13.8584C7.91292 13.7317 7.84175 13.5599 7.84175 13.3807C7.84175 13.2015 7.91292 13.0298 8.03959 12.9031C8.16627 12.7764 8.33807 12.7053 8.51722 12.7053C8.69636 12.7053 8.86817 12.7764 8.99485 12.9031L10.5425 14.4516L14.7905 10.2028C14.8532 10.14 14.9277 10.0902 15.0096 10.0562C15.0915 10.0223 15.1794 10.0048 15.2681 10.0048C15.3568 10.0048 15.4447 10.0223 15.5266 10.0562C15.6086 10.0902 15.683 10.14 15.7458 10.2028Z" fill="white"/>
</g>
</g>
<defs>
<clipPath id="clip0_83_5692">
<rect width="23.7632" height="23.7632" fill="white" transform="translate(0.0117188 0.824219)"/>
</clipPath>
<clipPath id="clip1_83_5692">
<rect width="23.7632" height="23.7632" fill="white" transform="translate(0.0117188 0.824219)"/>
</clipPath>
</defs>
</svg>
