<svg width="25" height="25" viewBox="0 0 25 25" fill="none" xmlns="http://www.w3.org/2000/svg">
<g clip-path="url(#clip0_83_5704)">
<g clip-path="url(#clip1_83_5704)">
<path d="M17.1371 9.4633V8.99327C17.1371 6.87686 13.9448 5.28027 9.71115 5.28027C5.47749 5.28027 2.28516 6.87686 2.28516 8.99327V12.3687C2.28516 14.1315 4.50029 15.5324 7.68588 15.9518V16.4193C7.68588 18.5357 10.8782 20.1323 15.1119 20.1323C19.3455 20.1323 22.5379 18.5357 22.5379 16.4193V13.0438C22.5379 11.297 20.3928 9.89451 17.1371 9.4633ZM21.1877 13.0438C21.1877 14.1594 18.5894 15.4066 15.1119 15.4066C14.7971 15.4066 14.4848 15.3956 14.1769 15.3754C15.997 14.7121 17.1371 13.6345 17.1371 12.3687V10.8278C19.6578 11.2033 21.1877 12.2227 21.1877 13.0438ZM7.68588 14.5839V12.5763C8.3574 12.6638 9.03394 12.7072 9.71115 12.7063C10.3884 12.7072 11.0649 12.6638 11.7364 12.5763V14.5839C11.0659 14.6829 10.3889 14.7323 9.71115 14.7315C9.03335 14.7323 8.35641 14.6829 7.68588 14.5839ZM15.787 11.1814V12.3687C15.787 13.0768 14.7398 13.8371 13.0866 14.2986V12.3265C14.176 12.0624 15.0984 11.6691 15.787 11.1814ZM9.71115 6.63045C13.1887 6.63045 15.787 7.87768 15.787 8.99327C15.787 10.1089 13.1887 11.3561 9.71115 11.3561C6.23359 11.3561 3.63534 10.1089 3.63534 8.99327C3.63534 7.87768 6.23359 6.63045 9.71115 6.63045ZM3.63534 12.3687V11.1814C4.32393 11.6691 5.24627 12.0624 6.3357 12.3265V14.2986C4.68257 13.8371 3.63534 13.0768 3.63534 12.3687ZM9.03606 16.4193V16.0673C9.25799 16.0758 9.48246 16.0817 9.71115 16.0817C10.0386 16.0817 10.3584 16.0707 10.6723 16.0522C11.021 16.177 11.3763 16.2829 11.7364 16.3695V18.3491C10.0833 17.8876 9.03606 17.1273 9.03606 16.4193ZM13.0866 18.6344V16.6218C13.7579 16.712 14.4345 16.7571 15.1119 16.7568C15.7891 16.7578 16.4656 16.7144 17.1371 16.6269V18.6344C15.7941 18.8313 14.4296 18.8313 13.0866 18.6344ZM18.4873 18.3491V16.377C19.5767 16.1129 20.4991 15.7196 21.1877 15.232V16.4193C21.1877 17.1273 20.1405 17.8876 18.4873 18.3491Z" fill="white"/>
</g>
</g>
<defs>
<clipPath id="clip0_83_5704">
<rect width="23.7632" height="23.7632" fill="white" transform="translate(0.53125 0.824219)"/>
</clipPath>
<clipPath id="clip1_83_5704">
<rect width="23.7632" height="23.7632" fill="white" transform="translate(0.53125 0.824219)"/>
</clipPath>
</defs>
</svg>
