<svg width="52" height="52" viewBox="0 0 52 52" fill="none" xmlns="http://www.w3.org/2000/svg">
<circle cx="26" cy="26" r="25.5" stroke="#050B20"/>
<path d="M23.6384 27.4806C22.2053 24.9726 21.847 21.7123 22.3127 20.0642C22.4919 19.3476 23.6742 18.4519 24.6057 17.8429C25.2506 17.4129 25.4656 16.553 25.0715 15.8723L22.5994 11.7163C22.2411 11.143 21.5604 10.8564 20.8796 11.0714C20.1989 11.2863 19.2315 11.7163 17.7268 12.5761C14.0007 14.7617 14.0007 23.1454 18.3 30.5976C22.5635 38.014 29.765 42.2417 33.5269 40.0562C35.0317 39.1963 35.8915 38.5514 36.429 38.0856C36.9305 37.6199 37.038 36.8675 36.7156 36.2943L34.3509 32.1024C33.9568 31.4216 33.1328 31.1709 32.4162 31.4933C31.413 31.9949 30.0516 32.5681 29.335 32.389C27.7228 31.9232 25.0715 29.9885 23.6384 27.4806Z" stroke="#050B20" stroke-miterlimit="10" stroke-linecap="round" stroke-linejoin="round"/>
</svg>
