<svg width="52" height="52" viewBox="0 0 52 52" fill="none" xmlns="http://www.w3.org/2000/svg">
<circle cx="26" cy="26" r="25.5" stroke="#050B20"/>
<path d="M25.6919 25.2581C28.1861 25.2581 30.208 23.2361 30.208 20.742C30.208 18.2478 28.1861 16.2258 25.6919 16.2258C23.1977 16.2258 21.1758 18.2478 21.1758 20.742C21.1758 23.2361 23.1977 25.2581 25.6919 25.2581Z" stroke="#050B20" stroke-miterlimit="10" stroke-linecap="round" stroke-linejoin="round"/>
<path d="M15.7061 26.8136L23.1333 39.0555C24.2998 40.9782 27.0888 40.9813 28.2596 39.0612L35.7276 26.8136C36.8315 25.0573 37.4337 22.9498 37.4337 20.7419C37.4337 14.2688 32.1649 9 25.6918 9C19.2186 9 14 14.2688 14 20.7419C14 22.9498 14.6022 25.0573 15.7061 26.8136Z" stroke="#050B20" stroke-miterlimit="10" stroke-linecap="round" stroke-linejoin="round"/>
</svg>
