<svg width="1920" height="42" viewBox="0 0 1920 42" fill="none" xmlns="http://www.w3.org/2000/svg">
<g clip-path="url(#clip0_58_9087)">
<path d="M163 0H-37V41.2H163V0Z" fill="#050B20"/>
<path d="M163 1.85999H-37V2.94999H163V1.85999Z" fill="#FAC12E"/>
<path d="M163 38.25H-37V39.34H163V38.25Z" fill="#FAC12E"/>
<path d="M148 19.9H138V21.29H148V19.9Z" fill="white"/>
<path d="M128 19.9H118V21.29H128V19.9Z" fill="white"/>
<path d="M108 19.9H98V21.29H108V19.9Z" fill="white"/>
<path d="M88 19.9H78V21.29H88V19.9Z" fill="white"/>
<path d="M68 19.9H58V21.29H68V19.9Z" fill="white"/>
<path d="M48 19.9H38V21.29H48V19.9Z" fill="white"/>
<path d="M28 19.9H18V21.29H28V19.9Z" fill="white"/>
<path d="M8 19.9H-2V21.29H8V19.9Z" fill="white"/>
<path d="M163 19.9H158V21.29H163V19.9Z" fill="white"/>
<path d="M363 0H163V41.2H363V0Z" fill="#050B20"/>
<path d="M363 1.85999H163V2.94999H363V1.85999Z" fill="#FAC12E"/>
<path d="M363 38.25H163V39.34H363V38.25Z" fill="#FAC12E"/>
<path d="M348 19.9H338V21.29H348V19.9Z" fill="white"/>
<path d="M328 19.9H318V21.29H328V19.9Z" fill="white"/>
<path d="M308 19.9H298V21.29H308V19.9Z" fill="white"/>
<path d="M288 19.9H278V21.29H288V19.9Z" fill="white"/>
<path d="M268 19.9H258V21.29H268V19.9Z" fill="white"/>
<path d="M248 19.9H238V21.29H248V19.9Z" fill="white"/>
<path d="M228 19.9H218V21.29H228V19.9Z" fill="white"/>
<path d="M208 19.9H198V21.29H208V19.9Z" fill="white"/>
<path d="M188 19.9H178V21.29H188V19.9Z" fill="white"/>
<path d="M363 19.9H358V21.29H363V19.9Z" fill="white"/>
<path d="M168 19.9H163V21.29H168V19.9Z" fill="white"/>
<path d="M563 0H363V41.2H563V0Z" fill="#050B20"/>
<path d="M563 1.85999H363V2.94999H563V1.85999Z" fill="#FAC12E"/>
<path d="M563 38.25H363V39.34H563V38.25Z" fill="#FAC12E"/>
<path d="M548 19.9H538V21.29H548V19.9Z" fill="white"/>
<path d="M528 19.9H518V21.29H528V19.9Z" fill="white"/>
<path d="M508 19.9H498V21.29H508V19.9Z" fill="white"/>
<path d="M488 19.9H478V21.29H488V19.9Z" fill="white"/>
<path d="M468 19.9H458V21.29H468V19.9Z" fill="white"/>
<path d="M448 19.9H438V21.29H448V19.9Z" fill="white"/>
<path d="M428 19.9H418V21.29H428V19.9Z" fill="white"/>
<path d="M408 19.9H398V21.29H408V19.9Z" fill="white"/>
<path d="M388 19.9H378V21.29H388V19.9Z" fill="white"/>
<path d="M563 19.9H558V21.29H563V19.9Z" fill="white"/>
<path d="M368 19.9H363V21.29H368V19.9Z" fill="white"/>
<path d="M763 0H563V41.2H763V0Z" fill="#050B20"/>
<path d="M763 1.85999H563V2.94999H763V1.85999Z" fill="#FAC12E"/>
<path d="M763 38.25H563V39.34H763V38.25Z" fill="#FAC12E"/>
<path d="M748 19.9H738V21.29H748V19.9Z" fill="white"/>
<path d="M728 19.9H718V21.29H728V19.9Z" fill="white"/>
<path d="M708 19.9H698V21.29H708V19.9Z" fill="white"/>
<path d="M688 19.9H678V21.29H688V19.9Z" fill="white"/>
<path d="M668 19.9H658V21.29H668V19.9Z" fill="white"/>
<path d="M648 19.9H638V21.29H648V19.9Z" fill="white"/>
<path d="M628 19.9H618V21.29H628V19.9Z" fill="white"/>
<path d="M608 19.9H598V21.29H608V19.9Z" fill="white"/>
<path d="M588 19.9H578V21.29H588V19.9Z" fill="white"/>
<path d="M763 19.9H758V21.29H763V19.9Z" fill="white"/>
<path d="M568 19.9H563V21.29H568V19.9Z" fill="white"/>
<path d="M963 0H763V41.2H963V0Z" fill="#050B20"/>
<path d="M963 1.85999H763V2.94999H963V1.85999Z" fill="#FAC12E"/>
<path d="M963 38.25H763V39.34H963V38.25Z" fill="#FAC12E"/>
<path d="M948 19.9H938V21.29H948V19.9Z" fill="white"/>
<path d="M928 19.9H918V21.29H928V19.9Z" fill="white"/>
<path d="M908 19.9H898V21.29H908V19.9Z" fill="white"/>
<path d="M888 19.9H878V21.29H888V19.9Z" fill="white"/>
<path d="M868 19.9H858V21.29H868V19.9Z" fill="white"/>
<path d="M848 19.9H838V21.29H848V19.9Z" fill="white"/>
<path d="M828 19.9H818V21.29H828V19.9Z" fill="white"/>
<path d="M808 19.9H798V21.29H808V19.9Z" fill="white"/>
<path d="M788 19.9H778V21.29H788V19.9Z" fill="white"/>
<path d="M963 19.9H958V21.29H963V19.9Z" fill="white"/>
<path d="M768 19.9H763V21.29H768V19.9Z" fill="white"/>
</g>
<path d="M1163 0H963V41.2H1163V0Z" fill="#050B20"/>
<path d="M1163 1.85999H963V2.94999H1163V1.85999Z" fill="#FAC12E"/>
<path d="M1163 38.25H963V39.34H1163V38.25Z" fill="#FAC12E"/>
<path d="M1148 19.9H1138V21.29H1148V19.9Z" fill="white"/>
<path d="M1128 19.9H1118V21.29H1128V19.9Z" fill="white"/>
<path d="M1108 19.9H1098V21.29H1108V19.9Z" fill="white"/>
<path d="M1088 19.9H1078V21.29H1088V19.9Z" fill="white"/>
<path d="M1068 19.9H1058V21.29H1068V19.9Z" fill="white"/>
<path d="M1048 19.9H1038V21.29H1048V19.9Z" fill="white"/>
<path d="M1028 19.9H1018V21.29H1028V19.9Z" fill="white"/>
<path d="M1008 19.9H998V21.29H1008V19.9Z" fill="white"/>
<path d="M988 19.9H978V21.29H988V19.9Z" fill="white"/>
<path d="M1163 19.9H1158V21.29H1163V19.9Z" fill="white"/>
<path d="M968 19.9H963V21.29H968V19.9Z" fill="white"/>
<path d="M1363 0H1163V41.2H1363V0Z" fill="#050B20"/>
<path d="M1363 1.85999H1163V2.94999H1363V1.85999Z" fill="#FAC12E"/>
<path d="M1363 38.25H1163V39.34H1363V38.25Z" fill="#FAC12E"/>
<path d="M1348 19.9H1338V21.29H1348V19.9Z" fill="white"/>
<path d="M1328 19.9H1318V21.29H1328V19.9Z" fill="white"/>
<path d="M1308 19.9H1298V21.29H1308V19.9Z" fill="white"/>
<path d="M1288 19.9H1278V21.29H1288V19.9Z" fill="white"/>
<path d="M1268 19.9H1258V21.29H1268V19.9Z" fill="white"/>
<path d="M1248 19.9H1238V21.29H1248V19.9Z" fill="white"/>
<path d="M1228 19.9H1218V21.29H1228V19.9Z" fill="white"/>
<path d="M1208 19.9H1198V21.29H1208V19.9Z" fill="white"/>
<path d="M1188 19.9H1178V21.29H1188V19.9Z" fill="white"/>
<path d="M1363 19.9H1358V21.29H1363V19.9Z" fill="white"/>
<path d="M1168 19.9H1163V21.29H1168V19.9Z" fill="white"/>
<path d="M1563 0H1363V41.2H1563V0Z" fill="#050B20"/>
<path d="M1563 1.85999H1363V2.94999H1563V1.85999Z" fill="#FAC12E"/>
<path d="M1563 38.25H1363V39.34H1563V38.25Z" fill="#FAC12E"/>
<path d="M1548 19.9H1538V21.29H1548V19.9Z" fill="white"/>
<path d="M1528 19.9H1518V21.29H1528V19.9Z" fill="white"/>
<path d="M1508 19.9H1498V21.29H1508V19.9Z" fill="white"/>
<path d="M1488 19.9H1478V21.29H1488V19.9Z" fill="white"/>
<path d="M1468 19.9H1458V21.29H1468V19.9Z" fill="white"/>
<path d="M1448 19.9H1438V21.29H1448V19.9Z" fill="white"/>
<path d="M1428 19.9H1418V21.29H1428V19.9Z" fill="white"/>
<path d="M1408 19.9H1398V21.29H1408V19.9Z" fill="white"/>
<path d="M1388 19.9H1378V21.29H1388V19.9Z" fill="white"/>
<path d="M1563 19.9H1558V21.29H1563V19.9Z" fill="white"/>
<path d="M1368 19.9H1363V21.29H1368V19.9Z" fill="white"/>
<path d="M1761 0H1561V41.2H1761V0Z" fill="#050B20"/>
<path d="M1761 1.85999H1561V2.94999H1761V1.85999Z" fill="#FAC12E"/>
<path d="M1761 38.25H1561V39.34H1761V38.25Z" fill="#FAC12E"/>
<path d="M1746 19.9H1736V21.29H1746V19.9Z" fill="white"/>
<path d="M1726 19.9H1716V21.29H1726V19.9Z" fill="white"/>
<path d="M1706 19.9H1696V21.29H1706V19.9Z" fill="white"/>
<path d="M1686 19.9H1676V21.29H1686V19.9Z" fill="white"/>
<path d="M1666 19.9H1656V21.29H1666V19.9Z" fill="white"/>
<path d="M1646 19.9H1636V21.29H1646V19.9Z" fill="white"/>
<path d="M1626 19.9H1616V21.29H1626V19.9Z" fill="white"/>
<path d="M1606 19.9H1596V21.29H1606V19.9Z" fill="white"/>
<path d="M1586 19.9H1576V21.29H1586V19.9Z" fill="white"/>
<path d="M1761 19.9H1756V21.29H1761V19.9Z" fill="white"/>
<path d="M1566 19.9H1561V21.29H1566V19.9Z" fill="white"/>
<path d="M1959 0H1759V41.2H1959V0Z" fill="#050B20"/>
<path d="M1959 1.85999H1759V2.94999H1959V1.85999Z" fill="#FAC12E"/>
<path d="M1959 38.25H1759V39.34H1959V38.25Z" fill="#FAC12E"/>
<path d="M1924 20.9H1914V22.29H1924V20.9Z" fill="white"/>
<path d="M1904 19.9H1894V21.29H1904V19.9Z" fill="white"/>
<path d="M1884 20.9H1874V22.29H1884V20.9Z" fill="white"/>
<path d="M1864 20.9H1854V22.29H1864V20.9Z" fill="white"/>
<path d="M1844 20.9H1834V22.29H1844V20.9Z" fill="white"/>
<path d="M1824 20.9H1814V22.29H1824V20.9Z" fill="white"/>
<path d="M1804 19.9H1794V21.29H1804V19.9Z" fill="white"/>
<path d="M1784 19.9H1774V21.29H1784V19.9Z" fill="white"/>
<path d="M1764 19.9H1759V21.29H1764V19.9Z" fill="white"/>
<defs>
<clipPath id="clip0_58_9087">
<rect width="1000" height="41.2" fill="white" transform="translate(-37)"/>
</clipPath>
</defs>
</svg>
