<svg width="70" height="35" viewBox="0 0 70 35" fill="none" xmlns="http://www.w3.org/2000/svg">
<g clip-path="url(#clip0_58_9249)">
<path d="M0 20.6V13.4217C0 7.65466 4.62673 2.97955 10.3341 2.97955L59.0245 2.97955C64.7319 2.98022 70 7.63677 70 13.4038V20.5821C70 26.3491 64.7319 31.0421 59.0245 31.0421L10.3348 31.0421C4.6274 31.0421 0.000663757 26.367 0.000663757 20.6H0Z" fill="#F9C243"/>
<path d="M39.1073 24.8769C38.621 26.2557 37.5098 27.1204 36.6246 26.8077C35.7394 26.4956 37.372 25.6124 37.8584 24.2342C38.3447 22.8554 37.751 22.8495 38.3851 21.8152C39.1371 20.5888 39.5936 23.4981 39.108 24.8763L39.1073 24.8769Z" fill="#FFE694"/>
<path d="M66.2505 14.024C66.2505 14.024 64.7418 20.7683 63.677 20.8571C62.6123 20.9459 61.8576 20.6795 61.2812 20.4132C60.7041 20.1468 62.0796 12.2489 62.0796 12.2489C64.8829 11.4433 66.487 11.8229 66.2505 14.024Z" fill="#F9D686"/>
<path d="M59.2383 25.1168C58.4843 25.25 50.9853 27.9566 50.9853 27.9566C50.9853 27.9566 53.5587 26.4035 53.4699 24.4065C53.3812 22.4095 59.2383 25.1168 59.2383 25.1168Z" fill="#F9D686"/>
<path d="M54.2687 4.97192C54.2687 4.97192 62.4329 8.56637 63.232 8.61077C64.0304 8.65516 58.6172 6.39248 59.0611 6.39248C59.505 6.39248 61.1575 6.45873 61.1575 6.19238L54.2687 4.97259V4.97192Z" fill="#F9D686"/>
<path d="M35.8651 9.90344C35.8651 9.90344 37.6852 17.2765 36.1162 18.438C34.5473 19.5989 11.6746 13.7 11.4547 12.8532C11.2353 12.0058 10.4456 9.84182 11.3917 9.96639C16.6366 10.6594 35.7803 10.7052 35.8651 9.90344Z" fill="#FFC94A"/>
<path d="M9.08995 8.65912C9.01905 9.20905 8.99056 24.5913 9.24168 25.8217C9.42123 26.7029 7.56736 24.054 7.36859 17.8298C7.17181 11.6632 9.08995 8.65912 9.08995 8.65912Z" fill="#FFCF61"/>
<path d="M23.6624 9.72452C16.8989 9.72452 11.3545 9.40384 11.3545 8.93275C11.3545 8.46166 16.8989 8.65844 23.6624 8.65844C30.4259 8.65844 35.8789 7.6997 35.8789 8.17079C35.8789 8.64188 30.4259 9.72452 23.6624 9.72452Z" fill="#E3D4B5"/>
<path d="M12.4996 8.97579C13.8207 8.89628 16.3206 8.91484 18.9252 8.93471C20.3603 8.94531 21.9863 8.9579 23.6626 8.9579C27.1947 8.9579 30.3181 8.70149 32.598 8.51464C33.3785 8.45037 34.1365 8.38875 34.7109 8.35828C34.0981 8.51531 33.1724 8.70149 31.8943 8.88038C29.3938 9.23088 26.4705 9.42435 23.6619 9.42435C20.5491 9.42435 17.6153 9.35545 15.4003 9.23022C13.9605 9.14872 13.0601 9.05663 12.4989 8.97646L12.4996 8.97579Z" fill="#A69A84"/>
<path d="M23.846 24.3124C17.0825 24.3124 11.5381 24.6331 11.5381 25.1042C11.5381 25.5752 17.0825 25.3785 23.846 25.3785C30.6095 25.3785 36.0625 26.3372 36.0625 25.8661C36.0625 25.395 30.6095 24.3124 23.846 24.3124Z" fill="#E3D4B5"/>
<path d="M12.6832 25.0604C14.0043 25.1399 16.5042 25.1213 19.1088 25.1015C20.5439 25.0909 22.1699 25.0783 23.8462 25.0783C27.3783 25.0783 30.5017 25.3347 32.7816 25.5215C33.5621 25.5858 34.3201 25.6474 34.8945 25.6779C34.2817 25.5209 33.356 25.3347 32.0779 25.1558C29.5774 24.8053 26.6541 24.6118 23.8455 24.6118C20.7327 24.6118 17.7989 24.6807 15.5839 24.806C14.1441 24.8874 13.2437 24.9795 12.6825 25.0597L12.6832 25.0604Z" fill="#A69A84"/>
<path d="M49.6996 5.15613C52.9747 5.9214 56.2365 6.74431 59.4692 7.67257C61.0627 8.12975 62.6535 8.60216 64.2185 9.15011C64.9917 9.4211 65.7616 9.70667 66.5103 10.0406C66.8748 10.2029 67.2359 10.3779 67.5758 10.5879C67.7759 10.7118 67.9799 10.8536 68.1264 11.0404C68.5829 11.6222 68.7419 12.461 68.8671 13.1706C69.0122 13.9922 69.0838 14.8277 69.1195 15.6605C69.1553 16.4967 69.1527 17.3349 69.1116 18.171C69.0705 19.0032 69.0142 19.8566 68.8194 20.6689C68.7777 20.8438 68.7306 21.0267 68.6445 21.1864C68.561 21.3414 68.4265 21.4309 68.2814 21.5236C67.9488 21.737 67.5983 21.9238 67.2498 22.1087C66.5229 22.4956 65.7855 22.8627 65.0447 23.2218C63.55 23.946 62.0373 24.6317 60.5101 25.285C58.9723 25.943 57.4205 26.5751 55.8443 27.1369C54.3045 27.6849 52.7196 28.2308 51.0989 28.48C50.6941 28.5422 50.28 28.5893 49.8699 28.5674C50.6842 28.5919 51.513 28.3872 52.2955 28.1811C53.0787 27.9738 53.8513 27.7266 54.6165 27.4596C56.1689 26.9176 57.6975 26.3074 59.2101 25.6634C60.7175 25.022 62.2089 24.3429 63.6898 23.6425C65.158 22.9482 66.6601 22.2604 68.0462 21.4103C68.176 21.3302 68.3404 21.25 68.4265 21.1195C68.5325 20.9591 68.5729 20.7405 68.614 20.5563C68.7028 20.1581 68.7525 19.7506 68.7929 19.3451C68.8731 18.5354 68.9049 17.7211 68.9055 16.9082C68.9069 16.0727 68.879 15.2365 68.7995 14.405C68.7227 13.6026 68.61 12.7896 68.3569 12.0217C68.2575 11.7189 68.1343 11.3929 67.9263 11.1464C67.76 10.9497 67.5234 10.8085 67.3034 10.6806C66.6157 10.2818 65.865 9.98627 65.1236 9.70335C63.6023 9.12294 62.0479 8.62601 60.4915 8.14896C57.3139 7.17498 54.1037 6.3037 50.8876 5.46555C50.492 5.36285 50.0965 5.26015 49.7002 5.15812L49.6996 5.15613Z" fill="#B88F31"/>
<path d="M66.3861 11.3704C64.7926 10.9908 63.1925 10.6383 61.5824 10.3375C60.0009 10.0426 58.3981 9.79614 56.7887 9.73585C55.8869 9.70206 54.9593 9.71862 54.0854 9.96576C54.8354 9.6676 55.6637 9.58677 56.464 9.56689C57.2717 9.54635 58.0794 9.59671 58.8824 9.6835C60.5163 9.86041 62.135 10.1851 63.7265 10.5899C64.6223 10.8178 65.5115 11.0723 66.3867 11.3711L66.3861 11.3704Z" fill="#B88F31"/>
<path d="M66.2188 21.8397C64.6372 22.2313 63.0305 22.5314 61.4197 22.7773C59.8322 23.0191 58.2315 23.2112 56.626 23.2709C55.7223 23.3047 54.804 23.308 53.9088 23.1629C55.0889 23.2311 56.2769 23.137 57.4516 23.0257C58.6403 22.9131 59.8256 22.766 61.0076 22.603C62.3116 22.4234 63.6135 22.2287 64.9155 22.0345C65.3501 21.9696 65.7848 21.9047 66.2188 21.8397Z" fill="#B88F31"/>
<path d="M6.21141 17.7019C6.21141 17.627 6.21207 17.5535 6.21406 17.4799C6.29622 13.6874 8.08052 7.8965 8.53571 7.39626C8.56287 7.36644 8.59998 7.34921 8.64039 7.34723C8.79676 7.3406 10.1729 7.29952 10.3412 7.94884C10.3558 8.0045 10.3498 8.14894 10.2789 9.49263C10.0729 13.4051 9.52493 23.7989 10.3796 26.4458C10.4187 26.5678 10.3962 26.7003 10.318 26.8023C10.2398 26.9037 10.1173 26.9607 9.98939 26.9547L8.30977 26.8255C8.25146 26.8209 8.20111 26.7831 8.18057 26.7288C8.16069 26.6751 6.21207 21.4295 6.21207 17.7032L6.21141 17.7019ZM8.72321 7.64472C8.29519 8.31856 6.59437 13.7887 6.5142 17.4866C6.44198 20.9028 8.16732 25.8111 8.42837 26.5326L10.0079 26.6546C10.0464 26.6565 10.0709 26.6307 10.0795 26.6194C10.0901 26.6055 10.106 26.577 10.0934 26.5379C9.22147 23.8386 9.77207 13.4051 9.97879 9.47673C10.0185 8.71875 10.0503 8.11515 10.047 8.01443C9.95228 7.71296 9.15919 7.63743 8.72255 7.64538L8.72321 7.64472Z" fill="#B88F31"/>
<path d="M26.4909 7.31546C16.7438 7.31546 10.572 7.28233 10.572 6.50978C10.572 5.73722 18.5493 4.22523 28.2964 4.22523C38.0435 4.22523 45.9453 3.54941 45.9453 4.32197C45.9453 5.09452 36.238 7.31546 26.4909 7.31546Z" fill="#050B20"/>
<path d="M45.9453 4.32198C45.9453 4.0755 45.141 3.97678 43.7303 3.95624C40.3095 4.88185 33.4108 6.0016 26.4909 6.0016C19.571 6.0016 14.8343 5.98636 12.3423 5.72928C11.2087 6.01485 10.572 6.2918 10.572 6.51045C10.572 7.28301 16.7438 7.31548 26.4909 7.31548C36.238 7.31548 45.9453 5.09454 45.9453 4.32198Z" fill="#050B20"/>
<path d="M26.4909 26.7069C16.7438 26.7069 10.572 26.74 10.572 27.5126C10.572 28.2852 18.5493 29.7971 28.2964 29.7971C38.0435 29.7971 45.9453 30.473 45.9453 29.7004C45.9453 28.9279 36.238 26.7069 26.4909 26.7069Z" fill="#050B20"/>
<path d="M26.4909 27.8425C33.8289 27.8425 41.1437 29.1014 44.3121 30.0535C45.3596 30.0151 45.9453 29.9124 45.9453 29.7024C45.9453 28.9298 36.238 26.7089 26.4909 26.7089C16.7438 26.7089 10.572 26.742 10.572 27.5145C10.572 27.7007 11.0364 27.93 11.8766 28.1705C14.1737 27.8611 19.3808 27.8432 26.4916 27.8432L26.4909 27.8425Z" fill="#050B20"/>
<path d="M39.6271 26.2537C41.0676 20.7458 40.939 14.5256 39.6271 7.768L48.0994 6.36931C49.8321 6.1129 52.2716 7.19951 52.2716 8.80758C53.7995 14.1565 53.6849 19.7374 52.2716 25.2142C52.2716 26.8229 49.8321 27.9095 48.0994 27.6524L39.6271 26.2537Z" fill="#050B20"/>
<path d="M48.9766 16.2177C48.9766 12.51 48.1888 9.12889 46.8941 6.56805L39.6264 7.76797C40.9382 14.5255 41.0668 20.7458 39.6264 26.2537L46.0493 27.3145C47.8383 24.6602 48.9759 20.6749 48.9759 16.2177H48.9766Z" fill="#050B20"/>
<path opacity="0.11" d="M44.9305 14.126C43.237 14.0333 41.8595 12.9095 41.8595 11.4095C41.8595 9.90941 43.2343 8.69293 44.9305 8.69293C46.6267 8.69293 49.379 10.8151 48.0015 11.4095C42.2988 13.8709 46.2112 14.1963 44.9305 14.126Z" fill="white"/>
<path d="M3.55279 26.1053C1.03701 20.3065 1.03701 13.7146 3.55279 7.9164C4.97599 7.63282 6.39124 7.48176 7.77734 7.45923C4.40088 13.3793 4.40088 20.6424 7.77734 26.5625C6.39124 26.54 4.97599 26.3889 3.55279 26.1053Z" fill="#050B20"/>
<path d="M64.4439 5.04416C62.7544 3.75612 62.109 4.32395 61.5571 4.98055C60.6958 6.00555 63.3215 7.40557 65.0111 8.69361C66.7006 9.98164 67.1558 10.3268 67.6759 9.64506C68.1961 8.96261 66.1335 6.3322 64.4439 5.04416Z" fill="#E3D5CD" stroke="#C2A99B" stroke-width="0.91" stroke-miterlimit="10"/>
<path d="M63.8973 5.06534C62.6397 4.1066 62.1593 4.52932 61.7485 5.01829C61.1072 5.78158 63.0618 6.82314 64.3193 7.78188C65.5769 8.74062 65.9155 8.9977 66.3024 8.48951C66.6893 7.98131 65.1542 6.02408 63.8966 5.06534H63.8973Z" fill="#050B20"/>
<path d="M63.9122 5.32045C62.8613 4.5194 62.4605 4.87255 62.1173 5.28069C61.5819 5.91809 63.2145 6.7887 64.2647 7.58975C65.3155 8.3908 65.5984 8.60548 65.9218 8.18143C66.2451 7.75738 64.963 6.1215 63.9122 5.32045Z" fill="#FDFFEB"/>
<path d="M64.4166 28.9677C62.727 30.2557 62.0817 29.6879 61.5297 29.0313C60.6684 28.0063 63.2942 26.6063 64.9837 25.3182C66.6733 24.0302 67.1285 23.685 67.6486 24.3668C68.1687 25.0492 66.1061 27.6796 64.4166 28.9677Z" fill="#E3D5CD" stroke="#C2A99B" stroke-width="0.91" stroke-miterlimit="10"/>
<path d="M63.8699 28.9465C62.6124 29.9052 62.132 29.4825 61.7212 28.9935C61.0798 28.2303 63.0344 27.1887 64.292 26.23C65.5495 25.2712 65.8881 25.0141 66.2751 25.5223C66.662 26.0305 65.1268 27.9878 63.8693 28.9465H63.8699Z" fill="#050B20"/>
<path d="M63.8848 28.6914C62.834 29.4924 62.4331 29.1393 62.0899 28.7311C61.5546 28.0938 63.1871 27.2231 64.2373 26.4221C65.2882 25.621 65.5711 25.4064 65.8944 25.8304C66.2177 26.2545 64.9357 27.8903 63.8848 28.6914Z" fill="#FDFFEB"/>
<path d="M7.76775 3.91777C7.93405 3.9085 4.42044 5.2184 1.88345 9.33297C1.88345 9.33297 2.0968 6.96626 3.0774 6.04993C4.05801 5.13359 6.97862 3.96084 7.76775 3.91777Z" fill="#A64C44"/>
<path d="M7.76775 29.8846C7.93405 29.8938 4.42044 28.5839 1.88345 24.4694C1.88345 24.4694 2.0968 26.8361 3.0774 27.7524C4.05801 28.6694 6.97862 29.8415 7.76775 29.8846Z" fill="#A64C44"/>
<path d="M44.1139 2.58469C44.1139 2.58469 45.2197 2.4588 45.8008 2.31635C45.7299 1.80021 45.5649 1.54644 45.1853 1.09921C44.6419 0.457837 43.6315 0.0291531 42.914 0C43.008 0.116613 44.1139 2.58469 44.1139 2.58469Z" fill="#DCA940"/>
<path d="M42.4104 0.39423L43.6693 2.94579L45.5828 2.74437L45.8008 2.31635L44.1139 2.58469L42.914 0L42.4104 0.39423Z" fill="#050B20"/>
<path d="M44.1139 31.437C44.1139 31.437 45.2197 31.5629 45.8008 31.7054C45.7299 32.2215 45.5649 32.4753 45.1853 32.9225C44.6419 33.5639 43.6315 33.9925 42.914 34.0217C43.008 33.9051 44.1139 31.437 44.1139 31.437Z" fill="#DCA940"/>
<path d="M42.4104 33.6275L43.6693 31.0759L45.5828 31.2773L45.8008 31.7054L44.1139 31.437L42.9537 34.0111L42.4104 33.6275Z" fill="#050B20"/>
</g>
<defs>
<clipPath id="clip0_58_9249">
<rect width="34.0217" height="70" fill="white" transform="matrix(0 1 -1 0 70 0)"/>
</clipPath>
</defs>
</svg>
