<svg width="70" height="32" viewBox="0 0 70 32" fill="none" xmlns="http://www.w3.org/2000/svg">
<path d="M69.3587 11.0224C70.0984 14.4806 70.29 17.3302 69.4384 20.1357C69.4384 24.7639 66.1477 27.6969 61.5188 27.6969C59.9445 28.4076 50.5732 28.798 39.2335 28.4529C30.0804 28.1743 19.3523 29.2489 10.6204 29.209C5.99217 29.209 1.54706 26.3159 1.54706 21.6877C-0.522287 19.5784 -0.522287 12.0571 1.58695 10.3063C1.58695 5.67804 5.76553 2.42655 11.0017 2.58611C20.4498 2.62599 31.0389 2.8762 40.1884 2.78494C50.3375 2.68401 58.6209 2.49182 61.5188 3.14333C66.1471 3.14333 69.3587 6.39421 69.3587 11.023V11.0224Z" fill="#BFBFBF"/>
<path d="M15.2547 3.38331C24.5329 3.41473 31.7158 6.25344 40.7009 6.18212C45.7631 6.14163 49.356 4.3515 53.0203 4.37084C54.8183 4.3799 48.5709 5.25623 51.3432 6.97988C52.7175 9.79864 61.5219 5.2792 61.9431 5.2792C65.8769 5.2792 68.7579 10.9004 68.7579 16.0224C68.7579 21.1444 65.2943 26.1056 61.3605 26.1056C60.8389 26.1056 51.7868 22.8167 50.6203 24.6836C48.3334 26.5039 53.5781 26.9717 51.927 27.017C48.0627 27.1246 45.2512 26.3679 39.7635 26.235C30.7748 26.0174 23.5768 28.2789 15.0021 28.2481C10.4566 28.2481 2.75341 24.5657 2.75341 20.9498C0.721531 19.3023 0.721531 13.426 2.79269 12.0578C2.79269 8.44184 10.1122 3.25881 15.2547 3.3827V3.38331Z" fill="#D8D8D8"/>
<path d="M58.5034 2.80426C59.792 2.87679 60.8133 2.98436 61.5174 3.14331C66.1456 3.14331 69.3572 6.39419 69.3572 11.023C70.0976 14.4812 70.2886 17.3308 69.437 20.1362C69.437 24.7645 66.1456 27.6975 61.5174 27.6975C61.0502 27.9084 59.8971 28.0909 58.2109 28.2347C59.6191 27.7597 60.9723 27.2526 61.5035 27.2526C65.5093 27.2526 68.7565 21.9373 68.7565 15.3811C68.7565 8.82495 65.5093 3.50956 61.5035 3.50956C61.0744 3.50956 59.8415 3.15842 58.5034 2.80486V2.80426Z" fill="#050B20"/>
<path d="M68.0032 20.3907C68.4855 19.0164 68.7575 17.5169 68.7575 16.0223C68.7575 14.4323 68.4498 12.7727 67.9089 11.2388C45.8798 7.56546 24.191 7.34063 2.90764 11.2388C2.8327 11.5186 2.79281 11.7924 2.79281 12.0577C0.913234 13.2991 0.739177 18.2524 2.24163 20.3901C22.1639 23.9413 44.1924 23.7498 68.0032 20.3901V20.3907Z" fill="#E0E0E0"/>
<path d="M59.2864 6.48121C59.6037 6.38029 59.9385 6.34644 60.2691 6.31683C60.6009 6.29084 60.9327 6.27754 61.2651 6.27271C61.5975 6.26667 61.9293 6.27271 62.2611 6.27875C62.5929 6.28661 62.9246 6.30172 63.2558 6.31804C63.9188 6.35551 64.5806 6.40688 65.24 6.48121C65.5699 6.51748 65.8993 6.56039 66.2275 6.61115C66.3913 6.63714 66.5551 6.66494 66.7182 6.69697C66.8808 6.73021 67.0446 6.76466 67.2005 6.82147C67.1201 6.80092 67.0386 6.78581 66.957 6.77433C66.8754 6.76164 66.7932 6.75137 66.711 6.74109C66.5466 6.72175 66.3822 6.70362 66.2172 6.68912C65.8878 6.65708 65.5579 6.6311 65.2279 6.60571C64.8979 6.58214 64.5679 6.55676 64.2373 6.53682C63.9073 6.51506 63.5768 6.49391 63.2462 6.47759C62.9156 6.45825 62.5856 6.44253 62.255 6.42984C61.9244 6.41473 61.5938 6.40627 61.2632 6.39721C60.9327 6.39116 60.6021 6.38754 60.2715 6.3954C59.9415 6.40325 59.6103 6.41534 59.2852 6.48182L59.2864 6.48121Z" fill="#050B20"/>
<path d="M59.4414 25.3029C59.7557 25.3676 60.076 25.3815 60.3951 25.3906C60.7142 25.3996 61.0345 25.3972 61.3536 25.3918C61.6733 25.3845 61.993 25.3767 62.3128 25.3628C62.6325 25.3507 62.9522 25.3362 63.2713 25.3181C63.591 25.3029 63.9101 25.283 64.2298 25.2618C64.5495 25.2431 64.8686 25.2183 65.1877 25.196C65.5068 25.1712 65.8259 25.1464 66.1444 25.115C66.304 25.1005 66.4629 25.083 66.6219 25.0642C66.701 25.0545 66.7808 25.0443 66.8594 25.0316C66.9386 25.0201 67.0171 25.0056 67.0951 24.9857C66.944 25.0413 66.7863 25.0757 66.6291 25.1083C66.4714 25.1404 66.313 25.1676 66.1547 25.1929C65.8374 25.2425 65.5189 25.2848 65.1998 25.3199C64.8807 25.3573 64.561 25.3851 64.2413 25.4129C63.9216 25.4383 63.6013 25.4595 63.2803 25.4776C62.9594 25.4927 62.6391 25.5072 62.3176 25.5139C61.9967 25.5193 61.6751 25.5235 61.3542 25.5163C61.0327 25.5108 60.7118 25.4957 60.3909 25.4685C60.0712 25.4383 59.7484 25.4021 59.4414 25.3035V25.3029Z" fill="#050B20"/>
<path d="M1.95617 21.4097C1.95073 21.4139 1.95617 21.4206 1.9598 21.4242C1.96403 21.4284 1.96826 21.4315 1.97309 21.4351C1.98276 21.4417 1.99243 21.4478 2.00271 21.4532C2.02265 21.4647 2.0438 21.475 2.06435 21.4853C2.10605 21.5052 2.14896 21.5245 2.19127 21.5427C2.27648 21.5795 2.36291 21.6146 2.44933 21.649C2.62218 21.7185 2.79563 21.7856 2.96969 21.8515C3.31781 21.9832 3.66652 22.1138 4.01706 22.2401C4.36638 22.3682 4.71691 22.4951 5.06744 22.6202L6.11964 22.995C6.82252 23.2403 7.52419 23.4893 8.22948 23.7287C8.93357 23.9704 9.63826 24.2109 10.3454 24.4424C11.0513 24.6787 11.7596 24.9072 12.4691 25.1302C13.178 25.3568 13.8906 25.5702 14.6043 25.7799C14.9615 25.8844 15.3199 25.9835 15.6783 26.0821C16.0367 26.1806 16.3969 26.2742 16.7583 26.3619C17.1191 26.4513 17.4817 26.5335 17.8467 26.6072C18.0293 26.6441 18.2118 26.678 18.3955 26.7082C18.5792 26.739 18.7636 26.7662 18.9485 26.7867C18.7624 26.7801 18.5756 26.7668 18.3901 26.7499C18.2045 26.7317 18.019 26.7088 17.8341 26.6834C17.4642 26.632 17.0961 26.5661 16.7293 26.496C15.9962 26.351 15.2691 26.1794 14.5469 25.9902L14.0054 25.847L13.4663 25.6965C13.1073 25.5943 12.7489 25.4898 12.3917 25.3834C11.6774 25.1676 10.9667 24.9404 10.2577 24.7077C9.55062 24.4702 8.84473 24.2291 8.14245 23.9783C7.44079 23.7244 6.74033 23.4694 6.0447 23.1998C5.34847 22.9333 4.65587 22.6553 3.96689 22.3688C3.62362 22.2232 3.28034 22.0775 2.94008 21.924C2.77025 21.8473 2.60042 21.7693 2.43241 21.6883C2.3484 21.6472 2.265 21.6061 2.1822 21.5626C2.14111 21.5409 2.10001 21.5185 2.05952 21.4955C2.03957 21.484 2.01903 21.472 1.99969 21.4587C1.99002 21.452 1.98035 21.4454 1.97128 21.4381C1.96705 21.4345 1.96221 21.4303 1.95859 21.426C1.95496 21.4224 1.95013 21.4151 1.95557 21.4109L1.95617 21.4097Z" fill="#050B20"/>
<path d="M1.96743 10.4109C1.96139 10.4067 1.96743 10.3994 1.97045 10.3958C1.97408 10.3909 1.97891 10.3873 1.98314 10.3837C1.99221 10.3764 2.00188 10.3698 2.01155 10.3631C2.03089 10.3498 2.05083 10.3378 2.07138 10.3263C2.11187 10.3027 2.15297 10.2803 2.19407 10.2586C2.27686 10.2151 2.36027 10.1734 2.44367 10.1323C2.61168 10.0507 2.78091 9.97272 2.95073 9.89537C3.29039 9.74125 3.63366 9.59439 3.97694 9.44813C4.66471 9.15985 5.35671 8.88064 6.05294 8.6123C6.74796 8.34094 7.44842 8.08469 8.14888 7.82904C8.85055 7.57642 9.55584 7.33346 10.2629 7.09534C10.9713 6.86145 11.682 6.633 12.3958 6.41543C12.7529 6.30785 13.1113 6.20269 13.4703 6.09995L14.0094 5.94825L14.5503 5.80381C15.2725 5.61344 15.999 5.44119 16.7321 5.29494C17.0989 5.22422 17.4664 5.15774 17.8369 5.10637C18.0218 5.08099 18.2073 5.05803 18.3929 5.03929C18.579 5.02176 18.7652 5.00847 18.9513 5.00242C18.7658 5.02297 18.582 5.05017 18.3983 5.08159C18.2146 5.11181 18.0321 5.14566 17.8495 5.18313C17.4851 5.25686 17.1225 5.33905 16.7617 5.4291C16.4003 5.51734 16.0407 5.61162 15.6823 5.71014C15.3239 5.80925 14.9655 5.90897 14.6089 6.01413C13.8958 6.22566 13.1832 6.4396 12.4749 6.66745C11.7654 6.89167 11.0577 7.12193 10.3524 7.35945C9.64529 7.59213 8.9412 7.83387 8.23772 8.07743C7.53303 8.31797 6.83197 8.56818 6.12969 8.81536L5.0781 9.19249C4.72757 9.3182 4.37764 9.44572 4.02832 9.57505C3.67839 9.70257 3.32967 9.83372 2.98216 9.96607C2.8081 10.0326 2.63465 10.1002 2.4624 10.1697C2.37598 10.2042 2.29016 10.2399 2.20434 10.2767C2.16143 10.2955 2.11913 10.3142 2.07742 10.3347C2.05627 10.345 2.03572 10.3553 2.01578 10.3668C2.0055 10.3728 1.99583 10.3783 1.98616 10.3849C1.98133 10.3885 1.9765 10.3915 1.97287 10.3958C1.96924 10.3994 1.9638 10.4054 1.96924 10.4103L1.96743 10.4109Z" fill="#050B20"/>
<path d="M31.5014 6.77859C32.6382 6.12225 35.2231 7.03303 34.3516 6.96232C32.8099 6.83721 32.9803 6.59063 31.8435 7.24697C30.7067 7.90331 30.9212 8.19885 30.2353 9.33868C29.7844 10.0887 30.3646 7.43493 31.5008 6.77859H31.5014Z" fill="#EDEDED"/>
<path d="M31.5014 24.5445C32.6382 25.2008 35.2231 24.29 34.3516 24.3608C32.8099 24.4859 32.9803 24.7324 31.8435 24.0761C30.7067 23.4198 30.9212 23.1242 30.2353 21.9844C29.7844 21.2344 30.3646 23.8881 31.5008 24.5445H31.5014Z" fill="#EDEDED"/>
<path d="M49.9522 7.77877C48.8154 7.12243 46.2305 8.03321 47.102 7.9625C48.6438 7.83739 48.4733 7.59081 49.6101 8.24715C50.747 8.90349 50.5324 9.19903 51.2184 10.3389C51.6692 11.0889 51.089 8.43511 49.9528 7.77877H49.9522Z" fill="#EDEDED"/>
<path d="M49.9522 23.9377C48.8154 24.594 46.2305 23.6832 47.102 23.7539C48.6438 23.879 48.4733 24.1256 49.6101 23.4693C50.747 22.8129 50.5324 22.5174 51.2184 21.3776C51.6692 20.6276 51.089 23.2813 49.9528 23.9377H49.9522Z" fill="#EDEDED"/>
<path d="M3.03185 20.5762C3.28931 20.6022 3.54617 20.633 3.80242 20.6638L4.57238 20.7569L6.1111 20.9539C7.1367 21.0856 8.1611 21.2271 9.1855 21.3691C10.2093 21.5135 11.2331 21.6586 12.2557 21.8127L13.7896 22.0442C14.3002 22.1258 14.8115 22.2031 15.3216 22.2883C14.8079 22.2297 14.2948 22.1638 13.7817 22.1022L12.243 21.9033C11.2174 21.7704 10.193 21.629 9.16858 21.4869C8.14478 21.3425 7.12099 21.1975 6.0978 21.0439L4.56392 20.8137L3.03125 20.575L3.03185 20.5762Z" fill="white"/>
<path d="M3.29688 11.153C3.55131 11.1064 3.80635 11.0647 4.062 11.023L4.82773 10.8985L6.3604 10.6604C7.38238 10.5021 8.40557 10.3534 9.42937 10.2047C10.4532 10.0591 11.477 9.91401 12.502 9.77802L14.0401 9.57435C14.5532 9.51089 15.0657 9.4432 15.58 9.38337C15.0699 9.4698 14.5592 9.54897 14.0485 9.63237L12.5153 9.86868C11.4933 10.0264 10.4701 10.1745 9.44629 10.3226C8.4225 10.4682 7.3987 10.6139 6.3737 10.7504L4.83619 10.9559L3.29748 11.153H3.29688Z" fill="white"/>
<path d="M30.1923 6.63775C28.4898 12.7642 28.4088 18.8586 30.1923 24.915C25.1585 26.2645 19.8183 27.582 17.8638 26.4065C13.3293 19.3391 13.6393 11.9749 17.8638 5.14618C20.9775 4.50193 25.6009 5.36738 30.1923 6.63775Z" fill="#050B20"/>
<path d="M21.8207 6.5671C24.6903 6.5671 24.0055 10.7209 24.0055 15.7873C24.0055 20.8537 24.6903 24.9132 21.8207 24.9132C18.9512 24.9132 16.625 20.8065 16.625 15.7402C16.625 10.6738 18.9512 6.5671 21.8207 6.5671Z" fill="#050B20"/>
<path d="M20.7302 6.56821C21.3436 6.56821 18.1997 10.7208 18.1997 15.7872C18.1997 20.8536 21.4155 24.4967 20.8015 24.4967C20.1875 24.4967 16.6211 20.8065 16.6211 15.7401C16.6211 10.6737 20.1161 6.56821 20.7302 6.56821Z" fill="#050B20"/>
<path d="M51.6641 7.88098C52.8238 13.1849 52.8788 18.4604 51.6641 23.7033C55.0932 24.8715 58.7303 26.0125 60.0617 24.9942C63.1506 18.8762 62.9397 12.5008 60.0617 6.58946C57.9404 6.03163 54.791 6.78104 51.6641 7.88038V7.88098Z" fill="#050B20"/>
<path d="M54.117 21.4254C54.7945 21.067 55.4243 22.0793 56.2287 19.8166C57.0331 17.5538 57.7372 18.3582 58.0388 19.1125C58.3403 19.8667 59.8742 23.4875 59.1447 17.604C58.4159 11.7205 57.435 6.94357 58.0889 8.10033C58.7428 9.25709 58.3905 4.68083 59.346 8.05017C60.3015 11.4195 60.93 15.4923 60.3517 15.1907C59.7733 14.8892 61.9859 17.4789 60.8545 19.9175C59.7231 22.3561 58.8432 23.89 58.24 23.337C57.6369 22.784 54.9716 23.8652 54.2174 23.4373C53.4631 23.01 53.6891 21.652 54.117 21.426V21.4254Z" fill="#050B20"/>
<path d="M38.6353 9.84087C38.9508 13.8067 38.9562 17.8415 38.6353 21.9487C38.6353 22.6492 38.0672 23.2173 37.3667 23.2173H33.0189C32.3185 23.2173 31.7504 22.6492 31.7504 21.9487C31.4349 17.7726 31.4295 13.7342 31.7504 9.84087C31.7504 9.14041 32.3185 8.57231 33.0189 8.57231H37.3667C38.0672 8.57231 38.6353 9.14041 38.6353 9.84087Z" fill="#050B20"/>
<path d="M32.0938 19.8359V21.3136C32.0938 21.598 32.3243 21.8285 32.6087 21.8285H37.8479C38.1323 21.8285 38.3628 21.598 38.3628 21.3136V19.8359C38.3628 19.5515 38.1323 19.321 37.8479 19.321H32.6087C32.3243 19.321 32.0938 19.5515 32.0938 19.8359Z" fill="#050B20"/>
<path d="M32.0938 16.7289V17.6826C32.0938 17.9259 32.291 18.1232 32.5343 18.1232H37.9222C38.1656 18.1232 38.3628 17.9259 38.3628 17.6826V16.7289C38.3628 16.4856 38.1656 16.2883 37.9222 16.2883H32.5343C32.291 16.2883 32.0938 16.4856 32.0938 16.7289Z" fill="#050B20"/>
<path d="M32.0938 12.485V15.1889C32.0938 15.5484 32.3852 15.8398 32.7446 15.8398H37.7119C38.0714 15.8398 38.3628 15.5484 38.3628 15.1889V12.485C38.3628 12.1255 38.0714 11.8341 37.7119 11.8341H32.7446C32.3852 11.8341 32.0938 12.1255 32.0938 12.485Z" fill="#050B20"/>
<path d="M32.0938 10.1273V10.8072C32.0938 11.0249 32.2702 11.2013 32.4878 11.2013H37.9688C38.1864 11.2013 38.3628 11.0249 38.3628 10.8072V10.1273C38.3628 9.90971 38.1864 9.73329 37.9688 9.73329H32.4878C32.2702 9.73329 32.0938 9.90971 32.0938 10.1273Z" fill="#050B20"/>
<path d="M24.3483 27.9531L53.4793 27.2738C53.4793 27.2738 49.702 24.7222 43.3743 24.7143C37.0466 24.7065 27.0963 25.7684 24.3477 27.9537L24.3483 27.9531Z" fill="#050B20"/>
<path d="M30.3359 27.4781C31.0255 27.3428 31.7967 27.2092 32.6609 27.0811C36.0085 26.5843 40.0136 26.29 43.3745 26.2942C45.6004 26.2972 47.4927 26.6278 48.9921 27.043L30.3365 27.4781H30.3359Z" fill="#050B20"/>
<path d="M24.3516 3.57365L53.4808 4.32668C53.4808 4.32668 49.6968 6.96474 43.3697 6.95628C37.042 6.94842 27.0948 5.86117 24.3516 3.57304V3.57365Z" fill="#050B20"/>
<path d="M49.1962 4.56357C47.7246 4.99932 45.741 5.39155 43.3713 5.38853C39.9869 5.3843 35.9842 5.07547 32.6632 4.56297C31.6267 4.40281 30.7244 4.2354 29.9375 4.06558L49.1962 4.56357Z" fill="#050B20"/>
<path d="M0.949636 11.8703C0.291482 14.2642 0.263077 17.3096 0.949636 19.9477L2.08161 20.6608C2.11243 20.6826 2.15232 20.6536 2.14265 20.6179C1.23913 17.3012 1.26935 14.1591 2.13963 11.1741C2.14991 11.1378 2.10941 11.1088 2.07859 11.1306L0.949636 11.8715V11.8703Z" fill="#CCCCCC" stroke="#050B20" stroke-width="2.64" stroke-miterlimit="10"/>
<path d="M1.05717 11.9737C1.05717 11.9791 1.05657 11.984 1.05475 11.9894C0.381489 14.3839 0.381489 17.3235 1.05475 19.8528C1.06321 19.8842 1.04387 19.9163 1.01184 19.9241C0.979811 19.932 0.947175 19.9132 0.938714 19.8824C0.260012 17.3338 0.260012 14.3718 0.938714 11.9586C0.94778 11.9272 0.980415 11.909 1.01245 11.9175C1.03904 11.9247 1.05657 11.9483 1.05657 11.9737H1.05717Z" fill="#050B20"/>
<path d="M1.25639 11.8703C1.25639 11.8758 1.25578 11.8812 1.25397 11.886C0.580708 14.3361 0.580708 17.3441 1.25397 19.932C1.26243 19.964 1.24309 19.9966 1.21106 20.0051C1.17903 20.0136 1.14639 19.9942 1.13793 19.9622C0.459231 17.3543 0.459231 14.3235 1.13793 11.854C1.147 11.822 1.17963 11.8033 1.21167 11.8123C1.23826 11.8196 1.25578 11.8437 1.25578 11.8697L1.25639 11.8703Z" fill="#050B20"/>
<path d="M1.45742 11.6975C1.45742 11.7029 1.45682 11.7077 1.45561 11.7132C0.78174 14.2618 0.782344 17.3906 1.45561 20.083C1.46407 20.1157 1.44412 20.1489 1.41149 20.1574C1.37885 20.1658 1.34561 20.1459 1.33715 20.1132C0.658449 17.4021 0.658449 14.2503 1.33715 11.6829C1.34561 11.6503 1.37946 11.631 1.41149 11.6394C1.43868 11.6467 1.45682 11.6715 1.45682 11.6987L1.45742 11.6975Z" fill="#050B20"/>
<path d="M1.658 11.614C1.658 11.6188 1.65739 11.6243 1.65619 11.6297C0.982319 14.24 0.982319 17.4443 1.65619 20.2014C1.66404 20.2347 1.6441 20.2679 1.61086 20.2764C1.57762 20.2842 1.54438 20.2643 1.53592 20.231C0.857819 17.4552 0.857819 14.2285 1.53592 11.5995C1.54438 11.5663 1.57822 11.5463 1.61146 11.5554C1.63926 11.5626 1.658 11.5874 1.658 11.6152V11.614Z" fill="#050B20"/>
<path d="M1.85903 11.4388C1.85903 11.4436 1.85843 11.449 1.85722 11.4539C1.18335 14.1397 1.18335 17.4371 1.85722 20.274C1.86507 20.3078 1.84453 20.3417 1.81068 20.3495C1.77684 20.3574 1.74299 20.3368 1.73514 20.303C1.05704 17.4474 1.05704 14.1276 1.73514 11.4237C1.7436 11.3898 1.77744 11.3699 1.81129 11.3783C1.83969 11.3856 1.85843 11.411 1.85843 11.4388H1.85903Z" fill="#050B20"/>
<path d="M1.37637 16.0132C1.37637 16.6079 1.22226 16.953 0.953318 16.9609C0.839093 16.9639 0.744812 16.9301 0.672288 16.8593C0.505484 16.6974 0.492188 16.3807 0.492188 16.0138C0.492188 15.6234 0.504879 15.3351 0.66564 15.178C0.738769 15.1067 0.835467 15.0722 0.953318 15.0753C1.22226 15.0825 1.37637 15.4246 1.37637 16.0132ZM0.691628 16.0132C0.691628 16.31 0.700694 16.6085 0.811292 16.7161C0.832445 16.7367 0.869311 16.7632 0.947879 16.7614C1.05848 16.7584 1.17693 16.5227 1.17693 16.0132C1.17693 15.5817 1.08265 15.2783 0.947879 15.2747C0.864477 15.2723 0.826402 15.3001 0.804644 15.3206C0.691628 15.4306 0.691628 15.7534 0.691628 16.0132Z" fill="#CCCCCC"/>
<path d="M1.3153 16.0132C1.3153 16.5625 1.17872 16.8943 0.950267 16.901C0.852964 16.9034 0.773188 16.875 0.712751 16.8164C0.562869 16.6707 0.550781 16.3667 0.550781 16.0138C0.550781 15.6379 0.56166 15.3617 0.706103 15.2208C0.767144 15.1616 0.849338 15.1326 0.950267 15.135C1.17872 15.1411 1.3153 15.4692 1.3153 16.0132ZM0.630557 16.0132C0.630557 16.3353 0.640832 16.6351 0.768353 16.759C0.81368 16.8031 0.872304 16.823 0.948454 16.8212C1.12553 16.8164 1.23553 16.5069 1.23553 16.0132C1.23553 15.6312 1.15998 15.2202 0.948454 15.2148C0.868677 15.2124 0.807637 15.2335 0.761705 15.2777C0.630557 15.4052 0.630557 15.7285 0.630557 16.0132Z" fill="#F5F5F5"/>
<path d="M3.25665 22.283L1.64844 21.452C1.64844 21.452 2.98167 25.7823 4.11485 26.6791C5.79015 28.0063 8.43062 27.5101 8.43062 27.5101C8.43062 27.5101 6.018 26.5583 4.94585 25.2583C4.40132 24.5983 3.25726 22.283 3.25726 22.283H3.25665Z" fill="#050B20" stroke="#050B20" stroke-width="1.32" stroke-miterlimit="10"/>
<path d="M4.64125 26.2343C3.82899 25.5913 2.91398 23.1835 2.4607 21.872L1.64844 21.4526C1.64844 21.4526 2.98167 25.7829 4.11485 26.6797C5.79015 28.0069 8.43062 27.5107 8.43062 27.5107C8.43062 27.5107 8.10427 27.382 7.6383 27.1548C6.7378 27.1372 5.54841 26.9529 4.64125 26.2343Z" fill="#FFF0D9"/>
<path d="M3.31525 9.44988L1.70703 10.2809C1.70703 10.2809 3.04026 5.95061 4.17345 5.05373C5.84875 3.72654 8.48922 4.22273 8.48922 4.22273C8.48922 4.22273 6.07659 5.1746 5.00445 6.47459C4.45991 7.13456 3.31585 9.44988 3.31585 9.44988H3.31525Z" fill="#050B20" stroke="#050B20" stroke-width="1.32" stroke-miterlimit="10"/>
<path d="M4.69985 5.49915C3.88758 6.14219 2.97257 8.54998 2.5193 9.86145L1.70703 10.2809C1.70703 10.2809 3.04026 5.95061 4.17345 5.05373C5.84875 3.72654 8.48922 4.22273 8.48922 4.22273C8.48922 4.22273 8.16286 4.35146 7.6969 4.5787C6.79639 4.59623 5.607 4.78056 4.69985 5.49915Z" fill="#FFF0D9"/>
<path d="M24.631 27.6388C24.4618 27.6002 22.6602 27.7005 22.6602 27.7005C22.6602 27.7005 23.1068 28.7938 23.1835 28.7938H23.4144C23.4144 28.7938 23.8532 30.9568 24.9235 31.4113C25.9938 31.8658 26.0476 31.627 26.0476 31.627L24.7235 28.5937C24.7235 28.5937 24.4769 28.7478 24.5077 28.5786C24.5385 28.4094 24.5923 28.4783 24.6153 28.4094C24.6382 28.3399 24.6304 27.6394 24.6304 27.6394L24.631 27.6388Z" fill="#C2C2C2"/>
<path d="M24.631 27.6388C24.4618 27.6001 22.6602 27.7004 22.6602 27.7004C22.6602 27.7004 23.1068 28.7937 23.1835 28.7937H23.4144C23.4144 28.7937 23.4192 28.8173 23.4289 28.8596L24.5059 28.5997C24.5059 28.5931 24.5059 28.5864 24.5077 28.5786C24.5385 28.4094 24.5923 28.4783 24.6153 28.4094C24.6382 28.3399 24.6304 27.6394 24.6304 27.6394L24.631 27.6388Z" fill="#050B20"/>
<path d="M23.9269 29.2162C23.6749 28.6663 23.4972 28.1296 23.4011 27.663C23.0016 27.6811 22.6602 27.7005 22.6602 27.7005C22.6602 27.7005 23.1068 28.7938 23.1835 28.7938H23.4144C23.4144 28.7938 23.8532 30.9568 24.9235 31.4113C25.9938 31.8658 26.0476 31.627 26.0476 31.627L25.9715 31.453C25.4753 31.6077 24.5742 30.6286 23.9269 29.2168V29.2162Z" fill="#050B20"/>
<path d="M25.9704 31.4523C25.9075 31.4741 25.8386 31.4765 25.7727 31.465C25.7068 31.4535 25.6434 31.4312 25.5823 31.404C25.4621 31.346 25.3521 31.2686 25.2499 31.1828C25.0463 31.0105 24.8722 30.8075 24.7102 30.5972C24.5525 30.3838 24.4069 30.1608 24.2769 29.9299C24.2116 29.8145 24.15 29.6967 24.0908 29.5782C24.0328 29.4591 23.9772 29.3389 23.9258 29.2168C24.0442 29.4537 24.1681 29.6876 24.3035 29.9142C24.4383 30.1415 24.5827 30.3627 24.7423 30.573C24.9006 30.7839 25.0735 30.9846 25.2699 31.1592C25.3678 31.2469 25.4742 31.3254 25.5908 31.3859C25.6494 31.4155 25.7105 31.4403 25.7745 31.4542C25.8386 31.4681 25.9063 31.4699 25.9704 31.4517V31.4523Z" fill="white"/>
<path d="M24.7052 4.05045C24.536 4.08913 22.7344 3.98881 22.7344 3.98881C22.7344 3.98881 23.181 2.89551 23.2578 2.89551H23.4886C23.4886 2.89551 23.9274 0.73249 24.9977 0.278008C26.0681 -0.176475 26.1218 0.0622485 26.1218 0.0622485L24.7977 3.09556C24.7977 3.09556 24.5511 2.94144 24.5819 3.11067C24.6127 3.27989 24.6665 3.21099 24.6895 3.27989C24.7125 3.34939 24.7046 4.04985 24.7046 4.04985L24.7052 4.05045Z" fill="#C2C2C2"/>
<path d="M24.7052 4.05045C24.536 4.08913 22.7344 3.98881 22.7344 3.98881C22.7344 3.98881 23.181 2.89551 23.2578 2.89551H23.4886C23.4886 2.89551 23.4935 2.87194 23.5031 2.82964L24.5801 3.08951C24.5801 3.09616 24.5801 3.10281 24.5819 3.11067C24.6127 3.27989 24.6665 3.21099 24.6895 3.27989C24.7125 3.34939 24.7046 4.04985 24.7046 4.04985L24.7052 4.05045Z" fill="#050B20"/>
<path d="M24.0011 2.47309C23.7491 3.02306 23.5714 3.55974 23.4753 4.02631C23.0758 4.00818 22.7344 3.98884 22.7344 3.98884C22.7344 3.98884 23.181 2.89554 23.2578 2.89554H23.4886C23.4886 2.89554 23.9274 0.732516 24.9977 0.278033C26.0681 -0.176449 26.1218 0.0622747 26.1218 0.0622747L26.0457 0.236332C25.5495 0.0816147 24.6484 1.06069 24.0011 2.47248V2.47309Z" fill="#050B20"/>
<path d="M26.0446 0.236927C25.9817 0.215169 25.9128 0.212751 25.8469 0.224234C25.7811 0.235717 25.7176 0.258079 25.6566 0.285275C25.5363 0.343294 25.4263 0.420651 25.3242 0.506471C25.1205 0.678715 24.9464 0.881784 24.7845 1.0921C24.6267 1.30544 24.4811 1.52845 24.3511 1.75932C24.2859 1.87475 24.2242 1.99261 24.165 2.11106C24.107 2.23012 24.0514 2.35039 24 2.47247C24.1185 2.23556 24.2424 2.00167 24.3777 1.77504C24.5125 1.54779 24.6569 1.3266 24.8165 1.11628C24.9748 0.905354 25.1477 0.704704 25.3441 0.530042C25.442 0.44241 25.5484 0.363842 25.665 0.303405C25.7236 0.273792 25.7847 0.249012 25.8488 0.235112C25.9128 0.221211 25.9805 0.219401 26.0446 0.237532V0.236927Z" fill="white"/>
<path d="M36.3608 2.93416C36.3608 2.97103 36.3463 3.00669 36.3197 3.03328C36.2302 3.12393 35.9891 3.13119 34.9048 3.12756C34.7501 3.12756 34.5863 3.12635 34.4171 3.12635C34.1548 3.12635 33.8998 3.12937 33.675 3.13179C32.7612 3.14206 32.5575 3.13602 32.4747 3.05322C32.4481 3.02663 32.4336 2.99158 32.4336 2.95411C32.4336 2.829 32.6433 2.69121 33.0579 2.54495C33.3033 2.45853 33.8043 2.31287 34.4026 2.31287C35.0009 2.31287 35.4983 2.45188 35.7413 2.53407C36.1529 2.67428 36.3614 2.80846 36.3614 2.93356L36.3608 2.93416ZM32.8585 2.88823C33.0645 2.89488 33.3716 2.89125 33.6719 2.88823C33.8974 2.88581 34.153 2.88279 34.4171 2.88279C34.5869 2.88279 34.7501 2.88279 34.9054 2.884C35.2971 2.88521 35.6984 2.88702 35.9437 2.87433C35.6549 2.74077 35.0837 2.55643 34.402 2.55643C33.7203 2.55643 33.1546 2.74923 32.8585 2.88823Z" fill="#050B20"/>
<path d="M36.2799 2.93414C36.2799 2.94985 36.2739 2.96436 36.2624 2.97584C36.1941 3.04474 35.8551 3.04957 34.9038 3.04655H34.8971C34.7442 3.04655 34.5829 3.04534 34.4155 3.04534C34.1514 3.04534 33.8969 3.04837 33.6721 3.05078C32.8749 3.05985 32.5903 3.05743 32.5292 2.99579C32.5178 2.9843 32.5117 2.9698 32.5117 2.95469C32.5117 2.94139 32.5274 2.8181 33.0822 2.62229C33.3228 2.53707 33.8141 2.39505 34.401 2.39505C34.9878 2.39505 35.4755 2.53103 35.7142 2.61201C36.2642 2.79937 36.2799 2.92145 36.2799 2.93474V2.93414ZM32.855 2.9698C33.0623 2.97645 33.3717 2.97282 33.6709 2.9698C33.8963 2.96738 34.1508 2.96436 34.4155 2.96436C34.5823 2.96436 34.7436 2.96436 34.8971 2.96557H34.9038C35.2948 2.96678 35.6985 2.96859 35.9463 2.9559L35.9753 2.80118C35.8109 2.72503 35.2102 2.47603 34.401 2.47603C33.5917 2.47603 32.9934 2.73591 32.8242 2.81508L32.855 2.9698Z" fill="#A8A8A8"/>
<path d="M35.7413 28.7642C35.4983 28.847 35.0015 28.9854 34.4026 28.9854C33.8037 28.9854 33.3033 28.8403 33.0579 28.7533C32.6439 28.607 32.4336 28.4692 32.4336 28.3441C32.4336 28.3073 32.4481 28.2722 32.4747 28.245C32.5575 28.1616 32.7612 28.1562 33.675 28.1664C33.8998 28.1689 34.1548 28.1719 34.4171 28.1719C34.5863 28.1719 34.7495 28.1719 34.9048 28.1707C35.9897 28.167 36.2308 28.1743 36.3197 28.2649C36.3463 28.2921 36.3608 28.3272 36.3608 28.3641C36.3608 28.4892 36.1523 28.6233 35.7407 28.7635L35.7413 28.7642ZM34.4026 28.7418C35.0843 28.7418 35.6555 28.5575 35.9444 28.4239C35.699 28.4118 35.2983 28.413 34.9061 28.4142C34.7507 28.4142 34.5869 28.4154 34.4177 28.4154C34.1542 28.4154 33.8986 28.4124 33.6725 28.41C33.3722 28.407 33.0652 28.4033 32.8591 28.41C33.1552 28.549 33.7348 28.7418 34.4026 28.7418Z" fill="#050B20"/>
<path d="M36.2838 28.3647C36.2838 28.378 36.2681 28.5001 35.7182 28.6875C35.48 28.7684 34.9923 28.9044 34.4049 28.9044C33.8174 28.9044 33.3267 28.7618 33.0861 28.6772C32.5319 28.4814 32.5156 28.3581 32.5156 28.3448C32.5156 28.3297 32.5217 28.3152 32.5332 28.3037C32.5942 28.242 32.8788 28.2396 33.676 28.2487C33.9002 28.2511 34.1547 28.2541 34.4194 28.2541C34.5862 28.2541 34.7475 28.2541 34.9011 28.2529H34.9077C35.859 28.2493 36.198 28.2541 36.2663 28.3236C36.2778 28.3357 36.2838 28.3496 36.2838 28.3653V28.3647ZM32.8281 28.4838C32.9973 28.5636 33.6107 28.8228 34.4049 28.8228C35.199 28.8228 35.8149 28.5738 35.9792 28.4977L35.9502 28.343C35.703 28.3309 35.2987 28.3321 34.9083 28.3333H34.9011C34.7481 28.3333 34.5868 28.3345 34.4194 28.3345C34.1547 28.3345 33.9002 28.3315 33.6754 28.3291C33.3756 28.326 33.0662 28.3224 32.8589 28.3291L32.8281 28.4838Z" fill="#A8A8A8"/>
</svg>
